<svg width="78" height="78" viewBox="0 0 78 78" fill="none" xmlns="http://www.w3.org/2000/svg">
<g id="mdi:instagram">
<path id="Vector" d="M25.35 6.5H52.65C63.05 6.5 71.5 14.95 71.5 25.35V52.65C71.5 57.6493 69.514 62.4439 65.979 65.979C62.4439 69.514 57.6493 71.5 52.65 71.5H25.35C14.95 71.5 6.5 63.05 6.5 52.65V25.35C6.5 20.3507 8.48598 15.5561 12.021 12.021C15.5561 8.48598 20.3507 6.5 25.35 6.5ZM24.7 13C21.597 13 18.621 14.2327 16.4269 16.4269C14.2327 18.621 13 21.597 13 24.7V53.3C13 59.7675 18.2325 65 24.7 65H53.3C56.403 65 59.379 63.7673 61.5732 61.5732C63.7673 59.379 65 56.403 65 53.3V24.7C65 18.2325 59.7675 13 53.3 13H24.7ZM56.0625 17.875C57.1399 17.875 58.1733 18.303 58.9351 19.0649C59.697 19.8267 60.125 20.8601 60.125 21.9375C60.125 23.0149 59.697 24.0483 58.9351 24.8101C58.1733 25.572 57.1399 26 56.0625 26C54.9851 26 53.9517 25.572 53.1899 24.8101C52.428 24.0483 52 23.0149 52 21.9375C52 20.8601 52.428 19.8267 53.1899 19.0649C53.9517 18.303 54.9851 17.875 56.0625 17.875ZM39 22.75C43.3098 22.75 47.443 24.462 50.4905 27.5095C53.538 30.557 55.25 34.6902 55.25 39C55.25 43.3098 53.538 47.443 50.4905 50.4905C47.443 53.538 43.3098 55.25 39 55.25C34.6902 55.25 30.557 53.538 27.5095 50.4905C24.462 47.443 22.75 43.3098 22.75 39C22.75 34.6902 24.462 30.557 27.5095 27.5095C30.557 24.462 34.6902 22.75 39 22.75ZM39 29.25C36.4141 29.25 33.9342 30.2772 32.1057 32.1057C30.2772 33.9342 29.25 36.4141 29.25 39C29.25 41.5859 30.2772 44.0658 32.1057 45.8943C33.9342 47.7228 36.4141 48.75 39 48.75C41.5859 48.75 44.0658 47.7228 45.8943 45.8943C47.7228 44.0658 48.75 41.5859 48.75 39C48.75 36.4141 47.7228 33.9342 45.8943 32.1057C44.0658 30.2772 41.5859 29.25 39 29.25Z" fill="black"/>
</g>
</svg>
