<svg width="78" height="78" viewBox="0 0 78 78" fill="none" xmlns="http://www.w3.org/2000/svg">
<g id="mdi:github">
<path id="Vector" d="M39 6.5C34.732 6.5 30.5059 7.34064 26.5628 8.97392C22.6197 10.6072 19.0369 13.0011 16.019 16.019C9.9241 22.114 6.5 30.3805 6.5 39C6.5 53.365 15.8275 65.5525 28.73 69.875C30.355 70.135 30.875 69.1275 30.875 68.25V62.7575C21.8725 64.7075 19.955 58.4025 19.955 58.4025C18.46 54.6325 16.3475 53.625 16.3475 53.625C13.39 51.61 16.575 51.675 16.575 51.675C19.825 51.9025 21.5475 55.0225 21.5475 55.0225C24.375 59.9625 29.1525 58.5 31.005 57.72C31.2975 55.6075 32.1425 54.1775 33.0525 53.365C25.8375 52.5525 18.265 49.7575 18.265 37.375C18.265 33.7675 19.5 30.875 21.6125 28.5675C21.2875 27.755 20.15 24.375 21.9375 19.9875C21.9375 19.9875 24.6675 19.11 30.875 23.3025C33.4425 22.5875 36.2375 22.23 39 22.23C41.7625 22.23 44.5575 22.5875 47.125 23.3025C53.3325 19.11 56.0625 19.9875 56.0625 19.9875C57.85 24.375 56.7125 27.755 56.3875 28.5675C58.5 30.875 59.735 33.7675 59.735 37.375C59.735 49.79 52.13 52.52 44.8825 53.3325C46.0525 54.34 47.125 56.3225 47.125 59.345V68.25C47.125 69.1275 47.645 70.1675 49.3025 69.875C62.205 65.52 71.5 53.365 71.5 39C71.5 34.732 70.6594 30.5059 69.0261 26.5628C67.3928 22.6197 64.9989 19.0369 61.981 16.019C58.9631 13.0011 55.3803 10.6072 51.4372 8.97392C47.4941 7.34064 43.268 6.5 39 6.5Z" fill="black"/>
</g>
</svg>
