<svg width="78" height="78" viewBox="0 0 78 78" fill="none" xmlns="http://www.w3.org/2000/svg">
<path d="M22.5547 16.2501C22.5538 17.974 21.8682 19.6269 20.6486 20.8453C19.429 22.0637 17.7753 22.7477 16.0514 22.7468C14.3275 22.746 12.6746 22.0603 11.4562 20.8407C10.2378 19.6211 9.55383 17.9675 9.55469 16.2436C9.55555 14.5197 10.2412 12.8667 11.4608 11.6483C12.6804 10.43 14.334 9.74597 16.0579 9.74683C17.7818 9.74769 19.4348 10.4333 20.6532 11.6529C21.8716 12.8725 22.5556 14.5262 22.5547 16.2501ZM22.7497 27.5601H9.74969V68.2501H22.7497V27.5601ZM43.2897 27.5601H30.3547V68.2501H43.1597V46.8976C43.1597 35.0026 58.6622 33.8976 58.6622 46.8976V68.2501H71.4997V42.4776C71.4997 22.4251 48.5547 23.1726 43.1597 33.0201L43.2897 27.5601Z" fill="black"/>
</svg>
